<mxfile host="app.diagrams.net" modified="2022-11-03T13:15:16.797Z" agent="5.0 (Windows)" etag="pxPVmGjXwpRzjuBF4B-W" version="20.5.1" type="github">
  <diagram id="LnBP_jRCh9cn2TfodteX" name="Page-1">
    <mxGraphModel dx="1958" dy="468" grid="1" gridSize="10" guides="1" tooltips="1" connect="1" arrows="1" fold="1" page="1" pageScale="1" pageWidth="850" pageHeight="1100" math="0" shadow="0">
      <root>
        <mxCell id="0" />
        <mxCell id="1" parent="0" />
        <mxCell id="7y3aiqjWiVnjY04hwzP7-2" value="&lt;i style=&quot;font-size: 19px;&quot;&gt;&lt;b style=&quot;font-size: 19px;&quot;&gt;USER&lt;/b&gt;&lt;/i&gt;" style="rounded=0;whiteSpace=wrap;html=1;fontFamily=Helvetica;fontSize=19;" vertex="1" parent="1">
          <mxGeometry x="-70" y="140" width="120" height="60" as="geometry" />
        </mxCell>
        <mxCell id="7y3aiqjWiVnjY04hwzP7-3" value="&lt;div&gt;&lt;br&gt;&lt;/div&gt;&lt;div&gt;CONTACTS&lt;/div&gt;&lt;div&gt;&lt;br&gt;&lt;/div&gt;" style="rounded=0;whiteSpace=wrap;html=1;fontFamily=Helvetica;fontSize=19;" vertex="1" parent="1">
          <mxGeometry x="660" y="120" width="120" height="60" as="geometry" />
        </mxCell>
        <mxCell id="7y3aiqjWiVnjY04hwzP7-4" value="has" style="rhombus;whiteSpace=wrap;html=1;fontFamily=Helvetica;fontSize=11;" vertex="1" parent="1">
          <mxGeometry x="310" y="280" width="130" height="80" as="geometry" />
        </mxCell>
        <mxCell id="7y3aiqjWiVnjY04hwzP7-5" value="" style="endArrow=none;html=1;rounded=0;fontFamily=Helvetica;fontSize=19;entryX=0;entryY=1;entryDx=0;entryDy=0;exitX=1;exitY=0.5;exitDx=0;exitDy=0;" edge="1" parent="1" source="7y3aiqjWiVnjY04hwzP7-4" target="7y3aiqjWiVnjY04hwzP7-3">
          <mxGeometry width="50" height="50" relative="1" as="geometry">
            <mxPoint x="340" y="280" as="sourcePoint" />
            <mxPoint x="400" y="230" as="targetPoint" />
            <Array as="points" />
          </mxGeometry>
        </mxCell>
        <mxCell id="7y3aiqjWiVnjY04hwzP7-6" value="" style="endArrow=none;html=1;rounded=0;fontFamily=Helvetica;fontSize=19;exitX=1;exitY=1;exitDx=0;exitDy=0;entryX=0;entryY=0.5;entryDx=0;entryDy=0;" edge="1" parent="1" source="7y3aiqjWiVnjY04hwzP7-2" target="7y3aiqjWiVnjY04hwzP7-4">
          <mxGeometry width="50" height="50" relative="1" as="geometry">
            <mxPoint x="360" y="250" as="sourcePoint" />
            <mxPoint x="310" y="310" as="targetPoint" />
          </mxGeometry>
        </mxCell>
      </root>
    </mxGraphModel>
  </diagram>
</mxfile>
